<svg xmlns="http://www.w3.org/2000/svg" xmlns:xlink="http://www.w3.org/1999/xlink" width="500" zoomAndPan="magnify" viewBox="0 0 375 374.999991" height="500" preserveAspectRatio="xMidYMid meet" version="1.0"><defs><clipPath id="06cc60a62d"><path d="M 37.5 69 L 288 69 L 288 320 L 37.5 320 Z M 37.5 69 " clip-rule="nonzero"/></clipPath><clipPath id="609439b216"><path d="M 64 28 L 337.5 28 L 337.5 342 L 64 342 Z M 64 28 " clip-rule="nonzero"/></clipPath></defs><g clip-path="url(#06cc60a62d)"><path fill="#dddddd" d="M 287.3125 194.152344 C 287.3125 196.195312 287.261719 198.238281 287.160156 200.28125 C 287.058594 202.324219 286.910156 204.359375 286.710938 206.394531 C 286.507812 208.429688 286.257812 210.457031 285.957031 212.480469 C 285.660156 214.5 285.308594 216.515625 284.910156 218.519531 C 284.511719 220.523438 284.0625 222.519531 283.566406 224.5 C 283.070312 226.484375 282.527344 228.453125 281.933594 230.410156 C 281.339844 232.367188 280.699219 234.308594 280.007812 236.230469 C 279.320312 238.15625 278.585938 240.0625 277.804688 241.953125 C 277.019531 243.839844 276.191406 245.707031 275.320312 247.554688 C 274.445312 249.402344 273.527344 251.230469 272.5625 253.03125 C 271.597656 254.835938 270.589844 256.613281 269.539062 258.367188 C 268.488281 260.121094 267.394531 261.847656 266.261719 263.546875 C 265.125 265.246094 263.949219 266.917969 262.730469 268.558594 C 261.511719 270.199219 260.253906 271.8125 258.957031 273.390625 C 257.660156 274.972656 256.328125 276.519531 254.953125 278.035156 C 253.582031 279.546875 252.171875 281.027344 250.726562 282.472656 C 249.28125 283.917969 247.800781 285.328125 246.285156 286.699219 C 244.773438 288.074219 243.226562 289.410156 241.644531 290.707031 C 240.0625 292.003906 238.453125 293.257812 236.8125 294.476562 C 235.167969 295.695312 233.5 296.871094 231.800781 298.007812 C 230.097656 299.144531 228.371094 300.234375 226.621094 301.285156 C 224.867188 302.339844 223.089844 303.34375 221.285156 304.308594 C 219.484375 305.273438 217.65625 306.191406 215.808594 307.066406 C 213.960938 307.9375 212.09375 308.765625 210.203125 309.550781 C 208.316406 310.332031 206.410156 311.066406 204.484375 311.757812 C 202.558594 312.445312 200.621094 313.085938 198.664062 313.679688 C 196.707031 314.273438 194.738281 314.816406 192.753906 315.3125 C 190.773438 315.8125 188.777344 316.257812 186.773438 316.65625 C 184.769531 317.054688 182.753906 317.40625 180.734375 317.707031 C 178.710938 318.003906 176.683594 318.253906 174.648438 318.457031 C 172.613281 318.65625 170.574219 318.808594 168.535156 318.90625 C 166.492188 319.007812 164.449219 319.058594 162.40625 319.058594 C 160.359375 319.058594 158.316406 319.007812 156.277344 318.90625 C 154.234375 318.808594 152.195312 318.65625 150.164062 318.457031 C 148.128906 318.253906 146.101562 318.003906 144.078125 317.707031 C 142.054688 317.40625 140.042969 317.054688 138.039062 316.65625 C 136.03125 316.257812 134.039062 315.8125 132.054688 315.3125 C 130.074219 314.816406 128.101562 314.273438 126.148438 313.679688 C 124.191406 313.085938 122.25 312.445312 120.324219 311.757812 C 118.402344 311.066406 116.496094 310.332031 114.605469 309.550781 C 112.71875 308.765625 110.847656 307.9375 109 307.066406 C 107.152344 306.191406 105.328125 305.273438 103.523438 304.308594 C 101.722656 303.34375 99.945312 302.339844 98.191406 301.285156 C 96.4375 300.234375 94.710938 299.144531 93.011719 298.007812 C 91.3125 296.871094 89.640625 295.695312 88 294.476562 C 86.359375 293.257812 84.746094 292.003906 83.167969 290.707031 C 81.585938 289.410156 80.039062 288.074219 78.523438 286.699219 C 77.007812 285.328125 75.53125 283.917969 74.082031 282.472656 C 72.636719 281.027344 71.230469 279.546875 69.855469 278.035156 C 68.484375 276.519531 67.148438 274.972656 65.851562 273.390625 C 64.554688 271.8125 63.296875 270.199219 62.082031 268.558594 C 60.863281 266.917969 59.6875 265.246094 58.550781 263.546875 C 57.414062 261.847656 56.320312 260.121094 55.269531 258.367188 C 54.21875 256.613281 53.210938 254.835938 52.25 253.03125 C 51.285156 251.230469 50.367188 249.402344 49.492188 247.554688 C 48.617188 245.707031 47.789062 243.839844 47.007812 241.953125 C 46.226562 240.0625 45.488281 238.15625 44.800781 236.230469 C 44.113281 234.308594 43.472656 232.367188 42.878906 230.410156 C 42.285156 228.453125 41.738281 226.484375 41.242188 224.5 C 40.746094 222.519531 40.296875 220.523438 39.898438 218.519531 C 39.5 216.515625 39.152344 214.5 38.851562 212.480469 C 38.550781 210.457031 38.300781 208.429688 38.101562 206.394531 C 37.902344 204.359375 37.75 202.324219 37.652344 200.28125 C 37.550781 198.238281 37.5 196.195312 37.5 194.152344 C 37.5 192.109375 37.550781 190.066406 37.652344 188.023438 C 37.75 185.980469 37.902344 183.945312 38.101562 181.910156 C 38.300781 179.875 38.550781 177.847656 38.851562 175.824219 C 39.152344 173.804688 39.5 171.789062 39.898438 169.785156 C 40.296875 167.78125 40.746094 165.785156 41.242188 163.800781 C 41.738281 161.820312 42.285156 159.851562 42.878906 157.894531 C 43.472656 155.9375 44.113281 153.996094 44.800781 152.074219 C 45.488281 150.148438 46.226562 148.242188 47.007812 146.351562 C 47.789062 144.464844 48.617188 142.597656 49.492188 140.75 C 50.367188 138.902344 51.285156 137.074219 52.25 135.273438 C 53.210938 133.46875 54.21875 131.691406 55.269531 129.9375 C 56.320312 128.183594 57.414062 126.457031 58.550781 124.757812 C 59.6875 123.058594 60.863281 121.386719 62.082031 119.746094 C 63.296875 118.105469 64.554688 116.492188 65.851562 114.914062 C 67.148438 113.332031 68.484375 111.785156 69.855469 110.269531 C 71.230469 108.757812 72.636719 107.277344 74.082031 105.832031 C 75.53125 104.386719 77.007812 102.976562 78.523438 101.601562 C 80.039062 100.230469 81.585938 98.894531 83.167969 97.597656 C 84.746094 96.300781 86.359375 95.046875 88 93.828125 C 89.640625 92.609375 91.3125 91.433594 93.011719 90.296875 C 94.710938 89.160156 96.4375 88.066406 98.191406 87.015625 C 99.945312 85.964844 101.722656 84.960938 103.523438 83.996094 C 105.328125 83.03125 107.152344 82.113281 109 81.238281 C 110.847656 80.363281 112.71875 79.535156 114.605469 78.753906 C 116.496094 77.972656 118.402344 77.238281 120.324219 76.546875 C 122.25 75.859375 124.191406 75.21875 126.148438 74.625 C 128.101562 74.03125 130.074219 73.488281 132.054688 72.988281 C 134.039062 72.492188 136.03125 72.046875 138.039062 71.648438 C 140.042969 71.25 142.054688 70.898438 144.078125 70.597656 C 146.101562 70.300781 148.128906 70.046875 150.164062 69.847656 C 152.195312 69.648438 154.234375 69.496094 156.277344 69.398438 C 158.316406 69.296875 160.359375 69.246094 162.40625 69.246094 C 164.449219 69.246094 166.492188 69.296875 168.535156 69.398438 C 170.574219 69.496094 172.613281 69.648438 174.648438 69.847656 C 176.683594 70.046875 178.710938 70.300781 180.734375 70.597656 C 182.753906 70.898438 184.769531 71.25 186.773438 71.648438 C 188.777344 72.046875 190.773438 72.492188 192.753906 72.988281 C 194.738281 73.488281 196.707031 74.03125 198.664062 74.625 C 200.621094 75.21875 202.558594 75.859375 204.484375 76.546875 C 206.410156 77.238281 208.316406 77.972656 210.203125 78.753906 C 212.09375 79.535156 213.960938 80.363281 215.808594 81.238281 C 217.65625 82.113281 219.484375 83.03125 221.285156 83.996094 C 223.089844 84.960938 224.867188 85.964844 226.621094 87.015625 C 228.371094 88.066406 230.097656 89.160156 231.800781 90.296875 C 233.5 91.433594 235.167969 92.609375 236.8125 93.828125 C 238.453125 95.046875 240.0625 96.300781 241.644531 97.597656 C 243.226562 98.894531 244.773438 100.230469 246.285156 101.601562 C 247.800781 102.976562 249.28125 104.386719 250.726562 105.832031 C 252.171875 107.277344 253.582031 108.757812 254.953125 110.269531 C 256.328125 111.785156 257.660156 113.332031 258.957031 114.914062 C 260.253906 116.492188 261.511719 118.105469 262.730469 119.746094 C 263.949219 121.386719 265.125 123.058594 266.261719 124.757812 C 267.394531 126.457031 268.488281 128.183594 269.539062 129.9375 C 270.589844 131.691406 271.597656 133.46875 272.5625 135.273438 C 273.527344 137.074219 274.445312 138.902344 275.320312 140.75 C 276.191406 142.597656 277.019531 144.464844 277.804688 146.351562 C 278.585938 148.242188 279.320312 150.148438 280.007812 152.074219 C 280.699219 153.996094 281.339844 155.9375 281.933594 157.894531 C 282.527344 159.851562 283.070312 161.820312 283.566406 163.800781 C 284.0625 165.785156 284.511719 167.78125 284.910156 169.785156 C 285.308594 171.789062 285.660156 173.804688 285.957031 175.824219 C 286.257812 177.847656 286.507812 179.875 286.710938 181.910156 C 286.910156 183.945312 287.058594 185.980469 287.160156 188.023438 C 287.261719 190.066406 287.3125 192.109375 287.3125 194.152344 Z M 287.3125 194.152344 " fill-opacity="1" fill-rule="nonzero"/></g><path fill="#ffffff" d="M 171.292969 301.296875 C 170.292969 302.289062 169.222656 303.332031 168.113281 304.421875 C 163.820312 308.613281 158.480469 313.832031 157.390625 315.851562 L 154.726562 314.414062 C 156.035156 311.988281 161.097656 307.039062 165.996094 302.253906 C 167.921875 300.375 169.738281 298.59375 171.226562 297.074219 C 176.0625 292.125 189.957031 288.945312 193.558594 288.191406 C 194.269531 286.230469 196.40625 280.050781 200.859375 265.132812 C 205.585938 249.316406 201.277344 239.546875 200.003906 237.164062 C 190.058594 236.035156 183.550781 237.9375 177.25 239.777344 C 173.4375 240.894531 169.835938 241.949219 165.628906 242.324219 C 165.351562 242.347656 165.074219 242.296875 164.828125 242.171875 C 156.578125 238.109375 127.886719 236.53125 127.597656 236.515625 L 127.761719 233.492188 C 128.523438 233.53125 140.113281 234.171875 150.777344 235.726562 C 149.59375 233.425781 148.796875 230.207031 150.703125 226.875 C 153.621094 221.765625 152.945312 213.992188 152.183594 208.585938 C 151.5 203.734375 146.710938 200.851562 145.425781 200.164062 C 145.089844 200.402344 144.777344 200.632812 144.511719 200.832031 C 141.925781 202.789062 140.625 206.957031 141.230469 209.238281 C 141.851562 211.589844 141.25 215.460938 140.636719 218.90625 C 140.550781 219.390625 140.453125 219.941406 140.441406 220.085938 C 140.148438 223.605469 140.546875 228.257812 141.496094 229.066406 C 142.445312 228.949219 143.34375 228.753906 144.164062 228.453125 L 145.199219 231.300781 C 137.464844 234.121094 125.160156 229.722656 117.804688 227.09375 C 115.902344 226.414062 114.257812 225.828125 113.320312 225.597656 C 110.433594 224.894531 98.257812 227.695312 90.210938 229.886719 C 90.957031 231.964844 91.789062 235.132812 90.726562 236.90625 C 89.921875 238.464844 88.628906 252.367188 91.671875 271.644531 C 93.382812 282.480469 93.484375 292.691406 93.613281 305.617188 C 93.707031 315.390625 93.816406 326.449219 94.636719 340.417969 C 102.351562 341.730469 137.238281 346.890625 175.390625 340.292969 C 175.300781 335.808594 174.988281 323.210938 174.191406 318.644531 C 173.476562 314.527344 172.042969 305.84375 171.292969 301.296875 Z M 171.292969 301.296875 " fill-opacity="1" fill-rule="nonzero"/><path fill="#ffffff" d="M 326.328125 110.675781 L 301.074219 125.28125 C 301.382812 126.355469 301.648438 127.417969 301.84375 128.40625 C 302.472656 131.546875 301.152344 134.566406 299.730469 136.757812 Z M 326.328125 110.675781 " fill-opacity="1" fill-rule="nonzero"/><path fill="#ffffff" d="M 295.96875 115.015625 C 296.179688 115.226562 296.382812 115.425781 296.570312 115.605469 C 297.757812 116.734375 299.0625 119.390625 300.121094 122.332031 L 333.585938 102.984375 L 273.816406 35.472656 L 240.03125 51.796875 L 297.039062 111.574219 C 297.5625 112.121094 297.597656 112.972656 297.128906 113.5625 Z M 295.96875 115.015625 " fill-opacity="1" fill-rule="nonzero"/><path fill="#ffffff" d="M 96.808594 225.074219 C 97.152344 224.527344 98.285156 222.542969 98.785156 219.480469 C 97.402344 221.726562 95.417969 224.003906 93.605469 225.867188 C 94.605469 225.613281 95.679688 225.34375 96.808594 225.074219 Z M 96.808594 225.074219 " fill-opacity="1" fill-rule="nonzero"/><path fill="#ffffff" d="M 270.863281 125.515625 L 241.269531 89.632812 L 233.050781 103.039062 L 263.207031 139.761719 C 265.84375 136.949219 268.515625 133.613281 268.691406 132.613281 C 268.882812 131.28125 269.457031 128.175781 270.863281 125.515625 Z M 270.863281 125.515625 " fill-opacity="1" fill-rule="nonzero"/><path fill="#ffffff" d="M 201.628906 273.066406 C 207.582031 270.015625 221.066406 262.980469 224.996094 259.859375 C 228.34375 257.207031 230.734375 256.992188 232.84375 256.800781 C 234.28125 256.671875 235.523438 256.558594 237.097656 255.652344 C 238.472656 254.859375 241.71875 251.269531 248.054688 236.109375 L 248.292969 235.539062 C 248.582031 234.859375 249.234375 233.5 250.136719 231.613281 C 253.488281 224.617188 260.464844 210.054688 261.953125 202.417969 C 263.714844 193.378906 268.441406 176.316406 270.710938 173.15625 C 271.414062 172.183594 271.667969 170.804688 271.9375 169.34375 C 272.28125 167.460938 272.675781 165.332031 274.203125 163.800781 C 274.570312 163.4375 275.121094 162.875 275.800781 162.175781 C 279.527344 158.359375 286.464844 151.253906 289.488281 149.410156 C 291.320312 148.296875 292.71875 143.902344 293.554688 141.277344 C 294.214844 139.199219 294.503906 138.335938 295.039062 137.800781 C 295.230469 137.609375 299.695312 133.089844 298.875 129 C 297.914062 124.191406 295.6875 118.941406 294.484375 117.800781 C 294.355469 117.679688 294.210938 117.53125 294.070312 117.394531 L 292.078125 119.890625 C 292.855469 121.199219 295.078125 125.472656 294.136719 130.363281 L 291.9375 129.941406 C 291.976562 130.453125 291.988281 130.988281 291.953125 131.542969 C 291.6875 136.015625 288.554688 141.480469 288.421875 141.710938 L 285.796875 140.195312 C 285.828125 140.144531 288.707031 135.117188 288.933594 131.363281 C 289.089844 128.75 287.996094 126.636719 287.425781 125.71875 L 280.546875 134.339844 L 283.148438 135.550781 C 282.332031 137.304688 279.035156 140.257812 276.8125 140.3125 C 275.871094 140.316406 275.101562 139.902344 274.6875 139.117188 C 273.867188 137.570312 275.105469 135.289062 277.363281 131.390625 C 278.039062 130.230469 278.957031 128.644531 279.097656 128.136719 C 279.105469 127.132812 278.675781 125.097656 277.75 124.371094 C 277.492188 124.171875 277.089844 123.972656 276.269531 124.203125 C 273.542969 124.96875 272.109375 130.121094 271.691406 133.042969 C 271.253906 136.089844 264.027344 143.324219 262.714844 144.527344 C 260.277344 146.765625 260.441406 151.464844 260.5625 154.894531 C 260.605469 156.054688 260.640625 157.058594 260.574219 157.867188 C 260.300781 161.285156 248.289062 193.582031 240.742188 202.949219 C 233.605469 211.8125 227.003906 224.808594 225.980469 227.535156 C 224.738281 230.84375 221.101562 234.117188 220.945312 234.257812 C 220.734375 234.445312 220.476562 234.570312 220.199219 234.617188 C 216.191406 235.320312 207.421875 236.910156 203.578125 237.609375 C 205.4375 242.015625 208.035156 251.691406 203.761719 266 C 202.980469 268.621094 202.269531 270.960938 201.628906 273.066406 Z M 201.628906 273.066406 " fill-opacity="1" fill-rule="nonzero"/><path fill="#ffffff" d="M 155.59375 221.246094 C 162.960938 216.3125 172.628906 209.238281 173.949219 206.523438 C 176.050781 202.203125 180.277344 176.710938 181.238281 164.441406 C 182.15625 152.683594 183.707031 142.289062 184.578125 139.964844 C 184.65625 139.757812 184.765625 139.488281 184.890625 139.167969 C 185.828125 136.800781 188.230469 130.734375 187.558594 126.589844 L 172.332031 120.324219 C 172.265625 121.335938 172.335938 122.710938 172.4375 123.613281 L 169.429688 123.957031 C 169.386719 123.589844 169.035156 120.304688 169.566406 118.519531 C 169.9375 117.265625 169.839844 112.28125 168.539062 110.277344 C 167.695312 108.980469 165.554688 108.589844 164.441406 108.519531 C 164.308594 108.613281 164.226562 108.703125 164.207031 108.78125 C 164.050781 109.347656 164.976562 110.769531 165.527344 111.617188 C 166.085938 112.476562 166.609375 113.285156 166.816406 114.070312 C 167.214844 115.601562 166.585938 117.542969 165.863281 119.796875 C 165.425781 121.144531 164.976562 122.535156 164.855469 123.625 C 164.703125 124.9375 168.042969 130.101562 169.648438 132.585938 C 171.304688 135.148438 172.257812 136.644531 172.546875 137.589844 C 173.46875 140.589844 166.617188 166.640625 165.324219 169.640625 C 163.863281 173.015625 158.148438 186.410156 157.257812 188.496094 C 157.277344 189.191406 157.207031 189.816406 157.015625 190.328125 C 156.253906 192.332031 152.878906 194.894531 148.132812 198.246094 C 150.488281 199.761719 154.457031 203.023438 155.183594 208.164062 C 155.746094 212.175781 156.191406 216.859375 155.59375 221.246094 Z M 155.59375 221.246094 " fill-opacity="1" fill-rule="nonzero"/><path fill="#ffffff" d="M 154.183594 189.253906 C 154.597656 188.160156 153.332031 183.96875 151.882812 180.742188 C 151.78125 180.507812 151.734375 180.253906 151.757812 180 C 151.898438 178.242188 151.675781 175.226562 150.753906 174.335938 C 150.476562 174.066406 150.3125 173.699219 150.292969 173.3125 C 150.292969 173.28125 150.09375 169.738281 147.832031 168.761719 C 147.222656 168.5 146.855469 167.867188 146.925781 167.207031 C 147.207031 164.660156 147.460938 161.621094 147.453125 160.46875 C 146.316406 159.710938 142.210938 158.160156 138.726562 157.066406 C 138.398438 156.960938 138.113281 156.746094 137.921875 156.460938 C 137.875 156.386719 133.027344 149.210938 124.65625 143.738281 C 113.582031 136.496094 101.851562 135.496094 89.78125 140.757812 C 62.21875 152.78125 67.019531 175.328125 69.074219 184.957031 C 69.199219 185.546875 69.3125 186.085938 69.410156 186.578125 C 71 194.519531 81.027344 202.097656 84.835938 203.167969 C 88.359375 204.15625 102.597656 212.476562 101.933594 218.785156 C 101.699219 221.011719 101.15625 222.84375 100.609375 224.207031 C 106.078125 223.019531 111.703125 222.089844 114.039062 222.65625 C 115.128906 222.921875 116.761719 223.503906 118.824219 224.242188 C 124.003906 226.09375 131.769531 228.863281 138.167969 229.164062 C 137.011719 225.9375 137.324219 221.03125 137.421875 219.835938 C 137.445312 219.5625 137.515625 219.167969 137.65625 218.375 C 138 216.441406 138.804688 211.914062 138.300781 210.011719 C 137.4375 206.75 139.027344 201.1875 142.683594 198.417969 C 143.429688 197.855469 144.410156 197.164062 145.546875 196.363281 C 148.175781 194.515625 153.644531 190.671875 154.183594 189.253906 Z M 154.183594 189.253906 " fill-opacity="1" fill-rule="nonzero"/><path fill="#ffffff" d="M 241.914062 180.941406 L 251.152344 175.328125 L 251.203125 175.410156 C 252.800781 171.453125 254.226562 167.710938 255.320312 164.675781 Z M 241.914062 180.941406 " fill-opacity="1" fill-rule="nonzero"/><path fill="#ffffff" d="M 190.546875 126.101562 L 231.285156 102.445312 L 240.046875 88.152344 L 219.789062 63.585938 L 190.457031 125.679688 C 190.488281 125.820312 190.523438 125.957031 190.546875 126.101562 Z M 190.546875 126.101562 " fill-opacity="1" fill-rule="nonzero"/><path fill="#ffffff" d="M 188.117188 123.546875 L 217.339844 61.679688 L 127.320312 31.832031 L 123.257812 96.878906 L 162.933594 113.183594 C 161.953125 111.675781 160.78125 109.824219 161.285156 107.980469 C 161.558594 106.976562 162.269531 106.1875 163.386719 105.636719 C 163.589844 105.535156 163.816406 105.480469 164.042969 105.480469 C 164.238281 105.476562 169.023438 105.464844 171.078125 108.625 C 172.523438 110.847656 172.882812 114.652344 172.757812 117.222656 Z M 188.117188 123.546875 " fill-opacity="1" fill-rule="nonzero"/><path fill="#ffffff" d="M 224.875 40.289062 L 221.058594 60.367188 L 272.691406 122.972656 C 273.460938 122.199219 274.367188 121.589844 275.449219 121.285156 C 277.433594 120.726562 278.808594 121.359375 279.609375 121.984375 C 281.417969 123.394531 281.980469 126.027344 282.097656 127.542969 L 293.9375 112.707031 Z M 224.875 40.289062 " fill-opacity="1" fill-rule="nonzero"/><path fill="#ffffff" d="M 261.933594 141.074219 L 231.726562 104.292969 L 191.191406 127.828125 L 235.097656 184.449219 L 257.578125 157.171875 C 257.589844 156.582031 257.566406 155.839844 257.535156 155.003906 C 257.402344 151.210938 257.199219 145.480469 260.667969 142.296875 C 261.066406 141.929688 261.496094 141.515625 261.933594 141.074219 Z M 261.933594 141.074219 " fill-opacity="1" fill-rule="nonzero"/><path fill="#ffffff" d="M 184.421875 162.675781 L 212.742188 203.25 L 232.964844 186.636719 L 190.355469 131.6875 C 189.734375 135.144531 188.429688 138.457031 187.707031 140.28125 C 187.585938 140.582031 187.488281 140.832031 187.414062 141.027344 C 186.851562 142.527344 185.421875 150.914062 184.421875 162.675781 Z M 184.421875 162.675781 " fill-opacity="1" fill-rule="nonzero"/><path fill="#ffffff" d="M 120.21875 96.992188 L 124.140625 34.175781 L 119.082031 40.042969 L 115.925781 99.640625 Z M 120.21875 96.992188 " fill-opacity="1" fill-rule="nonzero"/><path fill="#ffffff" d="M 289.105469 123.617188 L 289.457031 123.335938 C 289.523438 123.421875 290.542969 124.714844 291.265625 126.773438 C 291.070312 125.011719 290.496094 123.484375 290.015625 122.472656 Z M 289.105469 123.617188 " fill-opacity="1" fill-rule="nonzero"/><g clip-path="url(#609439b216)"><path fill="#000000" d="M 275.324219 32.609375 C 274.875 32.101562 274.144531 31.953125 273.53125 32.25 L 237.835938 49.492188 L 225.035156 36.066406 C 224.640625 35.65625 224.050781 35.5 223.507812 35.660156 C 222.964844 35.820312 222.554688 36.273438 222.449219 36.828125 L 218.273438 58.800781 L 126.40625 28.339844 C 125.824219 28.148438 125.183594 28.324219 124.785156 28.789062 L 116.449219 38.457031 C 116.230469 38.710938 116.101562 39.03125 116.085938 39.367188 L 112.75 102.371094 C 112.722656 102.933594 113.007812 103.464844 113.492188 103.753906 C 113.976562 104.039062 114.578125 104.035156 115.058594 103.738281 L 121.820312 99.5625 L 163.625 116.738281 C 163.4375 117.445312 163.191406 118.210938 162.980469 118.867188 C 162.5 120.355469 162.003906 121.894531 161.84375 123.28125 C 161.589844 125.503906 163.761719 129.058594 167.105469 134.230469 C 168.183594 135.898438 169.398438 137.78125 169.636719 138.425781 C 169.894531 141.144531 164.132812 164.761719 162.542969 168.4375 C 161.492188 170.871094 158.234375 178.496094 156.160156 183.359375 C 155.679688 181.933594 155.152344 180.652344 154.800781 179.851562 C 154.878906 178.445312 154.90625 174.730469 153.269531 172.617188 C 153.109375 171.332031 152.484375 168.214844 150.042969 166.539062 C 150.257812 164.472656 150.597656 160.769531 150.429688 159.648438 C 150.308594 158.84375 150.105469 157.503906 140.121094 154.332031 C 137.40625 150.589844 117.632812 125.304688 88.574219 137.984375 C 58.742188 150.996094 63.90625 175.238281 66.109375 185.589844 C 66.234375 186.164062 66.347656 186.691406 66.441406 187.171875 C 68.363281 196.785156 79.777344 204.890625 84.015625 206.082031 C 87.128906 206.957031 94.289062 211.695312 97.417969 215.398438 L 97.386719 215.390625 C 96.261719 219.453125 89.65625 225.664062 87.207031 227.714844 C 87.039062 227.855469 86.902344 228.03125 86.808594 228.230469 C 86.621094 228.628906 86.617188 229.085938 86.792969 229.488281 C 87.84375 231.875 88.496094 234.722656 88.128906 235.347656 C 86.71875 237.699219 85.632812 252.8125 88.683594 272.117188 C 90.359375 282.734375 90.457031 292.84375 90.582031 305.644531 C 90.683594 315.660156 90.792969 327.011719 91.667969 341.476562 L 94.691406 341.292969 C 94.671875 341 94.65625 340.710938 94.640625 340.417969 C 93.816406 326.449219 93.707031 315.390625 93.613281 305.617188 C 93.484375 292.691406 93.382812 282.480469 91.671875 271.644531 C 88.628906 252.367188 89.921875 238.464844 90.726562 236.90625 C 91.789062 235.132812 90.957031 231.964844 90.210938 229.886719 C 98.257812 227.695312 110.433594 224.894531 113.320312 225.597656 C 114.261719 225.828125 115.902344 226.414062 117.804688 227.09375 C 125.160156 229.722656 137.464844 234.121094 145.199219 231.300781 L 144.164062 228.453125 C 143.34375 228.753906 142.445312 228.953125 141.496094 229.066406 C 140.546875 228.257812 140.148438 223.609375 140.441406 220.085938 C 140.453125 219.941406 140.550781 219.390625 140.636719 218.90625 C 141.25 215.460938 141.851562 211.589844 141.230469 209.238281 C 140.625 206.957031 141.925781 202.789062 144.511719 200.832031 C 144.777344 200.632812 145.089844 200.402344 145.425781 200.164062 C 146.710938 200.851562 151.5 203.734375 152.183594 208.585938 C 152.945312 213.992188 153.621094 221.765625 150.703125 226.875 C 148.796875 230.207031 149.59375 233.425781 150.777344 235.726562 C 140.113281 234.171875 128.523438 233.53125 127.761719 233.492188 L 127.601562 236.515625 C 127.886719 236.53125 156.578125 238.109375 164.828125 242.175781 C 165.078125 242.296875 165.351562 242.347656 165.632812 242.324219 C 169.835938 241.949219 173.4375 240.894531 177.25 239.777344 C 183.550781 237.9375 190.058594 236.035156 200.007812 237.164062 C 201.277344 239.550781 205.585938 249.316406 200.859375 265.132812 C 196.40625 280.050781 194.269531 286.230469 193.558594 288.191406 C 189.957031 288.945312 176.0625 292.125 171.226562 297.074219 C 169.742188 298.597656 167.921875 300.375 165.996094 302.257812 C 161.097656 307.042969 156.035156 311.988281 154.726562 314.414062 L 157.390625 315.851562 C 158.480469 313.832031 163.820312 308.613281 168.113281 304.421875 C 169.226562 303.332031 170.292969 302.289062 171.292969 301.296875 C 172.042969 305.84375 173.476562 314.527344 174.191406 318.644531 C 174.988281 323.210938 175.304688 335.808594 175.390625 340.292969 C 175.410156 341.277344 175.421875 341.875 175.421875 341.90625 L 178.449219 341.863281 C 178.4375 341.136719 178.183594 323.925781 177.175781 318.125 C 176.324219 313.21875 174.445312 301.804688 173.933594 298.691406 C 178.433594 294.851562 190.511719 291.855469 194.972656 290.992188 C 195.476562 290.894531 195.898438 290.546875 196.089844 290.070312 C 196.152344 289.917969 197.28125 287.058594 200.382812 277.097656 C 202.925781 275.816406 221.820312 266.246094 226.878906 262.230469 C 229.515625 260.140625 231.183594 259.992188 233.113281 259.816406 C 234.683594 259.675781 236.457031 259.515625 238.613281 258.273438 C 241.722656 256.480469 245.609375 249.808594 250.851562 237.277344 L 251.085938 236.714844 C 251.34375 236.101562 252.015625 234.699219 252.867188 232.921875 C 256.273438 225.8125 263.363281 211.015625 264.925781 203 C 266.878906 192.988281 271.5 177.246094 273.171875 174.921875 C 274.265625 173.398438 274.609375 171.535156 274.914062 169.894531 C 275.207031 168.304688 275.484375 166.804688 276.347656 165.941406 C 276.714844 165.574219 277.273438 165 277.96875 164.292969 C 281.34375 160.835938 288.367188 153.640625 291.066406 151.996094 C 293.09375 150.761719 294.429688 147.964844 295.429688 145.214844 L 337.007812 104.449219 L 337.003906 104.445312 C 337.230469 104.222656 337.390625 103.933594 337.441406 103.609375 C 337.515625 103.160156 337.382812 102.703125 337.082031 102.363281 Z M 289.457031 123.335938 L 289.105469 123.617188 L 290.015625 122.472656 C 290.496094 123.484375 291.070312 125.011719 291.265625 126.773438 C 290.542969 124.714844 289.523438 123.421875 289.457031 123.335938 Z M 282.097656 127.542969 C 281.980469 126.027344 281.417969 123.394531 279.609375 121.984375 C 278.808594 121.359375 277.433594 120.726562 275.449219 121.285156 C 274.367188 121.589844 273.460938 122.199219 272.691406 122.972656 L 221.058594 60.367188 L 224.875 40.289062 L 293.9375 112.707031 Z M 154.796875 236.371094 C 153.699219 235.039062 151.441406 231.683594 153.332031 228.378906 C 153.84375 227.476562 154.257812 226.519531 154.597656 225.527344 C 157.621094 223.566406 174.386719 212.542969 176.671875 207.851562 C 178.933594 203.199219 182.753906 179.894531 184.011719 167.382812 L 211.195312 206.324219 C 211.4375 206.671875 211.8125 206.902344 212.230469 206.957031 C 212.300781 206.96875 212.367188 206.972656 212.4375 206.972656 C 212.785156 206.972656 213.125 206.851562 213.398438 206.628906 L 235.941406 188.113281 L 249.304688 179.996094 C 245.695312 188.511719 241.570312 197.097656 238.386719 201.050781 C 230.921875 210.316406 224.246094 223.539062 223.144531 226.46875 C 222.347656 228.601562 220.0625 230.917969 219.234375 231.714844 C 214.644531 232.519531 205.117188 234.25 202.101562 234.800781 C 201.859375 234.5 201.511719 234.300781 201.125 234.25 C 190.132812 232.855469 182.839844 234.988281 176.402344 236.871094 C 172.859375 237.910156 169.511719 238.886719 165.765625 239.269531 C 163.207031 238.105469 159.230469 237.148438 154.796875 236.371094 Z M 171.078125 108.625 C 169.023438 105.464844 164.238281 105.476562 164.042969 105.480469 C 163.816406 105.480469 163.59375 105.535156 163.386719 105.636719 C 162.269531 106.1875 161.558594 106.976562 161.285156 107.980469 C 160.78125 109.824219 161.953125 111.675781 162.933594 113.179688 L 123.257812 96.878906 L 127.320312 31.832031 L 217.339844 61.679688 L 188.117188 123.546875 L 172.757812 117.222656 C 172.882812 114.652344 172.523438 110.847656 171.078125 108.625 Z M 240.046875 88.152344 L 231.285156 102.445312 L 190.546875 126.101562 C 190.523438 125.957031 190.488281 125.820312 190.457031 125.679688 L 219.789062 63.585938 Z M 124.140625 34.175781 L 120.21875 96.992188 L 115.925781 99.640625 L 119.082031 40.042969 Z M 190.355469 131.6875 L 232.964844 186.636719 L 212.742188 203.25 L 184.421875 162.675781 C 185.421875 150.914062 186.851562 142.527344 187.414062 141.027344 C 187.488281 140.832031 187.585938 140.582031 187.707031 140.28125 C 188.429688 138.457031 189.734375 135.144531 190.355469 131.6875 Z M 251.203125 175.410156 L 251.152344 175.328125 L 241.914062 180.941406 L 255.320312 164.675781 C 254.226562 167.710938 252.800781 171.453125 251.203125 175.410156 Z M 257.535156 155.003906 C 257.566406 155.839844 257.589844 156.582031 257.578125 157.171875 L 235.097656 184.449219 L 191.191406 127.828125 L 231.726562 104.292969 L 261.933594 141.074219 C 261.496094 141.515625 261.066406 141.929688 260.667969 142.296875 C 257.199219 145.480469 257.402344 151.210938 257.535156 155.003906 Z M 263.207031 139.761719 L 233.050781 103.039062 L 241.269531 89.632812 L 270.863281 125.515625 C 269.457031 128.175781 268.882812 131.28125 268.691406 132.613281 C 268.515625 133.613281 265.84375 136.949219 263.207031 139.761719 Z M 297.039062 111.574219 L 240.03125 51.796875 L 273.816406 35.472656 L 333.585938 102.984375 L 300.121094 122.332031 C 299.0625 119.390625 297.757812 116.734375 296.570312 115.605469 C 296.382812 115.425781 296.179688 115.226562 295.96875 115.015625 L 297.128906 113.5625 C 297.597656 112.972656 297.5625 112.121094 297.039062 111.574219 Z M 301.84375 128.40625 C 301.648438 127.417969 301.382812 126.355469 301.074219 125.28125 L 326.328125 110.675781 L 299.730469 136.757812 C 301.152344 134.566406 302.472656 131.546875 301.84375 128.40625 Z M 96.808594 225.074219 C 95.679688 225.34375 94.605469 225.613281 93.605469 225.867188 C 95.417969 224.003906 97.402344 221.726562 98.785156 219.480469 C 98.285156 222.542969 97.152344 224.527344 96.808594 225.074219 Z M 142.683594 198.417969 C 139.027344 201.1875 137.4375 206.75 138.300781 210.011719 C 138.804688 211.914062 138 216.441406 137.65625 218.375 C 137.515625 219.167969 137.445312 219.5625 137.421875 219.835938 C 137.324219 221.03125 137.011719 225.9375 138.167969 229.164062 C 131.769531 228.863281 124.003906 226.09375 118.824219 224.242188 C 116.761719 223.503906 115.128906 222.921875 114.035156 222.65625 C 111.703125 222.089844 106.078125 223.019531 100.609375 224.207031 C 101.15625 222.84375 101.699219 221.011719 101.933594 218.785156 C 102.597656 212.476562 88.359375 204.15625 84.835938 203.167969 C 81.027344 202.097656 71 194.519531 69.410156 186.578125 C 69.3125 186.085938 69.199219 185.546875 69.074219 184.957031 C 67.019531 175.328125 62.21875 152.78125 89.78125 140.757812 C 101.847656 135.496094 113.582031 136.496094 124.65625 143.738281 C 133.027344 149.210938 137.875 156.386719 137.921875 156.460938 C 138.113281 156.746094 138.398438 156.960938 138.726562 157.066406 C 142.210938 158.160156 146.316406 159.710938 147.453125 160.46875 C 147.460938 161.621094 147.207031 164.660156 146.925781 167.207031 C 146.855469 167.867188 147.222656 168.5 147.832031 168.761719 C 150.09375 169.738281 150.292969 173.28125 150.292969 173.3125 C 150.3125 173.699219 150.476562 174.066406 150.753906 174.335938 C 151.675781 175.226562 151.898438 178.242188 151.757812 180 C 151.734375 180.253906 151.78125 180.507812 151.882812 180.742188 C 153.332031 183.96875 154.597656 188.160156 154.183594 189.253906 C 153.644531 190.671875 148.175781 194.515625 145.546875 196.363281 C 144.410156 197.164062 143.429688 197.855469 142.683594 198.417969 Z M 148.132812 198.246094 C 152.878906 194.894531 156.253906 192.332031 157.015625 190.328125 C 157.207031 189.816406 157.277344 189.191406 157.257812 188.496094 C 158.148438 186.410156 163.863281 173.015625 165.324219 169.640625 C 166.617188 166.640625 173.46875 140.589844 172.546875 137.589844 C 172.257812 136.644531 171.304688 135.148438 169.648438 132.585938 C 168.042969 130.105469 164.703125 124.9375 164.855469 123.625 C 164.976562 122.535156 165.425781 121.144531 165.863281 119.796875 C 166.585938 117.546875 167.214844 115.601562 166.816406 114.070312 C 166.609375 113.285156 166.085938 112.476562 165.527344 111.617188 C 164.976562 110.769531 164.050781 109.347656 164.207031 108.78125 C 164.226562 108.703125 164.308594 108.613281 164.441406 108.519531 C 165.554688 108.589844 167.695312 108.980469 168.539062 110.277344 C 169.839844 112.28125 169.9375 117.269531 169.566406 118.519531 C 169.035156 120.308594 169.386719 123.589844 169.429688 123.957031 L 172.4375 123.613281 C 172.335938 122.710938 172.265625 121.335938 172.332031 120.324219 L 187.558594 126.589844 C 188.230469 130.734375 185.828125 136.800781 184.890625 139.167969 C 184.765625 139.488281 184.65625 139.757812 184.578125 139.964844 C 183.707031 142.292969 182.15625 152.683594 181.238281 164.441406 C 180.277344 176.710938 176.050781 202.203125 173.949219 206.527344 C 172.628906 209.238281 162.960938 216.3125 155.59375 221.246094 C 156.191406 216.859375 155.746094 212.175781 155.183594 208.164062 C 154.457031 203.023438 150.488281 199.761719 148.132812 198.246094 Z M 203.578125 237.609375 C 207.421875 236.910156 216.191406 235.316406 220.199219 234.617188 C 220.476562 234.570312 220.734375 234.445312 220.945312 234.257812 C 221.101562 234.117188 224.738281 230.84375 225.980469 227.535156 C 227.003906 224.804688 233.605469 211.8125 240.742188 202.949219 C 248.289062 193.582031 260.300781 161.285156 260.574219 157.867188 C 260.640625 157.058594 260.605469 156.054688 260.5625 154.894531 C 260.441406 151.464844 260.277344 146.765625 262.714844 144.527344 C 264.027344 143.324219 271.253906 136.085938 271.691406 133.042969 C 272.109375 130.121094 273.542969 124.96875 276.269531 124.203125 C 277.089844 123.972656 277.492188 124.171875 277.75 124.371094 C 278.675781 125.097656 279.105469 127.132812 279.097656 128.136719 C 278.957031 128.644531 278.039062 130.226562 277.363281 131.390625 C 275.105469 135.289062 273.867188 137.570312 274.6875 139.117188 C 275.101562 139.902344 275.871094 140.316406 276.8125 140.3125 C 279.035156 140.257812 282.332031 137.304688 283.148438 135.550781 L 280.546875 134.339844 L 287.425781 125.71875 C 287.996094 126.636719 289.089844 128.75 288.929688 131.363281 C 288.707031 135.117188 285.828125 140.144531 285.796875 140.195312 L 288.421875 141.710938 C 288.554688 141.480469 291.6875 136.015625 291.953125 131.542969 C 291.988281 130.988281 291.976562 130.453125 291.9375 129.941406 L 294.136719 130.363281 C 295.078125 125.472656 292.855469 121.199219 292.078125 119.890625 L 294.070312 117.394531 C 294.210938 117.53125 294.355469 117.675781 294.484375 117.800781 C 295.6875 118.941406 297.914062 124.191406 298.875 129 C 299.695312 133.089844 295.230469 137.609375 295.039062 137.800781 C 294.503906 138.335938 294.214844 139.199219 293.554688 141.277344 C 292.71875 143.902344 291.320312 148.296875 289.488281 149.410156 C 286.464844 151.253906 279.527344 158.359375 275.800781 162.175781 C 275.117188 162.875 274.566406 163.4375 274.203125 163.800781 C 272.675781 165.332031 272.28125 167.460938 271.933594 169.34375 C 271.664062 170.804688 271.410156 172.183594 270.710938 173.15625 C 268.441406 176.316406 263.714844 193.378906 261.953125 202.417969 C 260.464844 210.054688 253.488281 224.617188 250.136719 231.613281 C 249.234375 233.5 248.582031 234.859375 248.292969 235.539062 L 248.054688 236.109375 C 241.71875 251.269531 238.46875 254.859375 237.097656 255.652344 C 235.523438 256.558594 234.28125 256.671875 232.84375 256.800781 C 230.734375 256.992188 228.339844 257.203125 224.996094 259.859375 C 221.066406 262.980469 207.582031 270.015625 201.628906 273.066406 C 202.269531 270.960938 202.980469 268.621094 203.761719 266 C 208.035156 251.691406 205.4375 242.015625 203.578125 237.609375 Z M 203.578125 237.609375 " fill-opacity="1" fill-rule="nonzero"/></g></svg>